<svg xmlns="http://www.w3.org/2000/svg" xml:space="preserve" viewBox="0 0 200 254.277">
  <path fill="#fff" d="M10 10h180v180H10Z"/>
  <path fill="#ff1616" d="M0 0h200v200H0Zm71.921 75c3.941 0 10.838.65 16.092 1.948l2.627-15.909c-5.91-1.948-13.793-2.922-19.047-2.922-24.63 0-34.155 8.766-34.155 29.87v21.104c0 20.78 9.196 29.87 34.155 29.87 6.24 0 13.793-.974 19.047-2.922l-2.627-15.91c-5.254 1.3-10.837 1.949-16.092 1.949-11.494 0-14.778-3.247-14.778-12.987V87.662C57.143 78.247 60.755 75 71.92 75zm82.759-3.247c2.627-.65 5.911-1.623 8.538-2.272v-9.74h-24.302c-4.269-.975-8.867-1.624-13.464-1.624-22.66 0-31.2 9.74-31.527 25.974v7.143c0 9.415 3.284 16.558 10.509 20.779-3.941 2.597-8.21 6.818-8.21 13.312 0 9.74 4.269 13.636 15.435 14.935 10.18.974 13.464 1.623 22.66 2.597 5.91.65 7.553 1.624 7.553 6.169 0 5.195-3.284 6.169-19.048 6.169-8.867 0-17.734-1.299-26.6-3.247l-2.3 14.61c8.868 2.598 21.019 3.897 30.214 3.897 29.557 0 35.468-6.494 35.468-23.052 0-11.04-3.941-17.208-16.749-18.832-9.195-.974-13.793-1.623-22.66-2.272-2.956-.325-4.27-1.299-4.27-3.247 0-2.273 1.971-4.545 4.598-6.169 1.642 0 2.956.325 4.598.325 22.003 0 31.856-9.416 31.856-25.325V84.74c.328-5.194-.657-9.74-2.3-12.987zM138.916 84.74c0-7.467-3.612-10.714-13.464-10.714-9.524 0-13.137 3.571-13.137 10.714v5.844c0 7.793 3.941 10.39 13.137 10.39s13.464-2.922 13.464-10.39zM48.387 231.808v-7.342c0-5.895-2.78-11.457-12.68-11.457s-12.57 5.45-12.57 11.457v7.342c0 5.895 2.67 11.457 12.57 11.457 10.01-.111 12.68-5.562 12.68-11.457zm-7.23-7.564v7.786c0 3.226-1.557 5.006-5.34 5.006s-5.339-1.669-5.339-5.006v-7.786c0-3.226 1.558-5.006 5.34-5.006s5.339 1.669 5.339 5.006zm37.375 18.02V222.24c2.224-1.334 5.673-2.447 7.564-2.447 1.668 0 2.336.779 2.336 2.336v20.245h7.23v-21.023c0-5.117-1.669-8.565-6.452-8.565-3.448 0-8.231 1.334-11.68 3.114-.89-2.002-2.669-3.115-5.45-3.115-3.337 0-7.898 1.224-11.568 3.004l-.668-2.447h-5.562v28.92h7.23V222.24c2.67-1.334 5.785-2.447 7.565-2.447 1.668 0 2.336.779 2.336 2.336v20.245h7.119zm34.26-8.12c8.009 0 11.568-3.56 11.568-9.455v-2.781c0-1.669-.333-3.226-1-4.561 1-.334 2.224-.556 3.225-.89v-3.67h-9.01c-1.557-.446-3.226-.557-4.894-.557-8.454 0-11.569 3.671-11.68 9.678v2.78c0 3.56 1.335 6.23 3.893 7.787-1.446 1.001-3.114 2.558-3.114 4.894 0 3.671 1.668 5.006 5.673 5.562 3.67.445 5.117.556 8.342 1.001 2.225.223 2.781.556 2.781 2.336 0 1.891-1.223 2.336-6.896 2.336-3.337 0-6.563-.445-9.789-1.224l-.89 5.45c3.226 1.002 7.898 1.447 11.235 1.447 10.9 0 13.014-2.447 13.014-8.565 0-4.116-1.446-6.452-6.118-7.008-3.448-.334-5.228-.556-8.342-.89-1.224-.111-1.669-.445-1.669-1.223 0-.89.779-1.669 1.669-2.336.778-.111 1.446-.111 2.002-.111zm4.894-12.014v2.225c0 2.78-1.446 3.893-4.894 3.893-3.448 0-4.894-1.112-4.894-3.893v-2.225c0-2.78 1.335-4.004 4.894-4.004 3.56 0 4.894 1.335 4.894 4.004zm34.483 1.001c0-7.23-2.78-10.456-11.79-10.456-3.227 0-7.12.556-9.9 1.335l.89 5.562c2.558-.556 5.339-.89 8.008-.89 4.56 0 5.562 1.112 5.562 4.338v3.003h-7.008c-5.895 0-8.454 2.225-8.454 8.12 0 5.006 2.336 8.566 7.564 8.566 3.115 0 6.007-.89 8.677-2.559l.556 2.002h6.006zm-7.23 12.459c-1.669 1-3.56 1.446-5.45 1.446-2.337 0-2.893-.89-2.893-2.892 0-2.225.556-2.893 3.004-2.893h5.339zm28.365.556c-1.113.333-2.336.556-3.56.556-1.89 0-2.67-1.001-2.67-2.558v-15.128h7.008l.445-5.785h-7.452V205l-7.23 1.001v7.23h-4.228v5.785h4.227v16.129c0 5.116 2.781 7.675 8.01 7.675 1.779 0 4.782-.445 6.34-1.113zm10.678-4.56v-1.447H200v-6.23c0-6.228-2.002-11.679-11.346-11.679-9.232 0-11.902 5.117-11.902 11.235v7.675c0 6.897 3.115 11.124 12.236 11.124 3.448 0 7.453-.557 10.678-1.891l-1.112-5.45a30.268 30.268 0 0 1-8.899 1.334c-4.45.222-5.673-1.224-5.673-4.672zm0-8.788c0-2.781 1.224-4.672 4.783-4.672 3.56 0 4.45 1.89 4.45 4.672v1.446h-9.233ZM12.458 242.82c2.336 0 5.228-.445 7.12-1.112l-.89-5.896c-2.003.556-4.005.779-6.007.779-4.227 0-5.34-1.224-5.34-4.783v-8.01c0-3.559 1.224-4.782 5.34-4.782 1.446 0 4.004.222 6.006.778l.89-5.895c-2.113-.668-5.005-1.113-7.119-1.113C3.337 212.786 0 216.123 0 223.91v7.898c0 7.786 3.337 11.012 12.458 11.012z"/>
</svg>
