<?xml version="1.0" encoding="UTF-8" standalone="no"?>
<svg role="presentation" fill="#a1a1a1" class="main-header__logo-image" viewBox="0 0 80 39.999999" version="1.1" id="svg16" sodipodi:docname="google-pay.svg" width="80" height="40" inkscape:export-filename="/home/janakdom/workspace/payments/payments_vue/src/assets/img/method/130x65/CARD_GOOGLE_PAY.png" inkscape:export-xdpi="156" inkscape:export-ydpi="156" inkscape:version="1.1.1 (3bf5ae0d25, 2021-09-20, custom)" xmlns:inkscape="http://www.inkscape.org/namespaces/inkscape" xmlns:sodipodi="http://sodipodi.sourceforge.net/DTD/sodipodi-0.dtd" xmlns="http://www.w3.org/2000/svg" xmlns:svg="http://www.w3.org/2000/svg">
    <defs id="defs20" />
    <sodipodi:namedview id="namedview18" pagecolor="#505050" bordercolor="#ffffff" borderopacity="1" inkscape:pageshadow="0" inkscape:pageopacity="0" inkscape:pagecheckerboard="1" showgrid="false" inkscape:zoom="11.87525" inkscape:cx="41.346498" inkscape:cy="20.125892" inkscape:window-width="1920" inkscape:window-height="1011" inkscape:window-x="1920" inkscape:window-y="0" inkscape:window-maximized="1" inkscape:current-layer="svg16" />
    <g id="g29" transform="matrix(0.15244394,0,0,0.15244394,6.766971,8.80405)" inkscape:export-filename="/home/janakdom/workspace/payments/payments_vue/src/assets/img/method/80x40/CARD_GOOGLE_PAY.png" inkscape:export-xdpi="96" inkscape:export-ydpi="96">
        <path d="m 206.2,84.58 v 50.75 H 190.1 V 10 h 42.7 A 38.61,38.61 0 0 1 260.45,20.85 34.88,34.88 0 0 1 272,47.3 34.72,34.72 0 0 1 260.45,73.9 q -11.2,10.68 -27.65,10.67 h -26.6 z m 0,-59.15 v 43.75 h 27 a 21.28,21.28 0 0 0 15.93,-6.48 21.36,21.36 0 0 0 0,-30.63 21,21 0 0 0 -15.93,-6.65 h -27 z" fill="#5f6368" id="path2" />
        <path d="m 309.1,46.78 q 17.85,0 28.18,9.54 10.33,9.54 10.32,26.16 v 52.85 h -15.4 v -11.9 h -0.7 q -10,14.7 -26.6,14.7 -14.17,0 -23.71,-8.4 a 26.82,26.82 0 0 1 -9.54,-21 q 0,-13.31 10.06,-21.17 10.06,-7.86 26.86,-7.88 14.34,0 23.62,5.25 V 81.25 A 18.33,18.33 0 0 0 325.54,67 22.8,22.8 0 0 0 310,61.13 q -13.49,0 -21.35,11.38 l -14.18,-8.93 q 11.7,-16.8 34.63,-16.8 z m -20.83,62.3 a 12.86,12.86 0 0 0 5.34,10.5 19.64,19.64 0 0 0 12.51,4.2 25.67,25.67 0 0 0 18.11,-7.52 q 8,-7.53 8,-17.67 -7.53,-6 -21,-6 -9.81,0 -16.36,4.73 c -4.41,3.2 -6.6,7.09 -6.6,11.76 z" fill="#5f6368" id="path4" />
        <path d="M 436,49.58 382.24,173.13 H 365.62 L 385.57,129.9 350.22,49.58 h 17.5 l 25.55,61.6 h 0.35 l 24.85,-61.6 z" fill="#5f6368" id="path6" />
        <path d="M 141.14,73.64 A 85.79,85.79 0 0 0 139.9,59 H 72 v 27.73 h 38.89 a 33.33,33.33 0 0 1 -14.38,21.88 v 18 h 23.21 c 13.59,-12.53 21.42,-31.06 21.42,-52.97 z" fill="#4285f4" id="path8" />
        <path d="m 72,144 c 19.43,0 35.79,-6.38 47.72,-17.38 l -23.21,-18 C 90.05,113 81.73,115.5 72,115.5 53.22,115.5 37.28,102.84 31.58,85.78 H 7.67 v 18.55 A 72,72 0 0 0 72,144 Z" fill="#34a853" id="path10" />
        <path d="m 31.58,85.78 a 43.14,43.14 0 0 1 0,-27.56 V 39.67 H 7.67 a 72,72 0 0 0 0,64.66 z" fill="#fbbc04" id="path12" />
        <path d="m 72,28.5 a 39.09,39.09 0 0 1 27.62,10.8 v 0 L 120.17,18.75 A 69.18,69.18 0 0 0 72,0 72,72 0 0 0 7.67,39.67 L 31.58,58.22 C 37.28,41.16 53.22,28.5 72,28.5 Z" fill="#ea4335" id="path14" />
    </g>
</svg>
