<svg width="134" height="58" viewBox="0 0 134 58" fill="none" xmlns="http://www.w3.org/2000/svg">
<path d="M22.3677 33.7019C30.0793 16.542 41.7663 10.9156 60.141 9.82361C69.8086 9.24912 67.3944 -0.710045 58.2115 0.381912C38.769 2.69081 27.72 15.279 22.3677 33.7019Z" fill="#DEE2D5"/>
<path d="M34.8659 8.13523C41.5426 2.50442 34.4273 -3.3939 28.3777 2.35093C15.5681 14.5116 14.3665 29.5665 20.4292 45.7748C16.7543 29.2091 22.168 18.8355 34.8659 8.13523Z" fill="#DEE2D5"/>
<path d="M27.1192 55.0806C14.8182 45.9766 12.3646 35.7104 14.6757 20.9142C15.8948 13.128 7.56042 13.3231 6.83903 20.8111C5.31073 36.6664 13.3973 47.6298 27.117 55.0806H27.1192Z" fill="#DEE2D5"/>
<path d="M6.74267 41.0452C2.93179 35.0504 -2.59816 40.144 1.37279 45.6477C9.77954 57.2974 21.7911 59.9089 35.5195 56.7821C21.7626 57.9399 13.9851 52.445 6.74267 41.0452Z" fill="#DEE2D5"/>
<path d="M28.2461 27.7575C45.7919 16.4828 60.0554 18.3246 77.7854 28.4285C87.1109 33.7414 90.8976 23.0323 81.7059 18.4913C62.2458 8.87195 44.3667 13.8822 28.2461 27.7575Z" fill="#DEE2D5"/>
<path d="M105.628 36.9032C104.62 37.3351 103.723 37.9337 102.967 38.6793C102.206 39.427 101.601 40.3106 101.171 41.3061C100.741 42.2994 100.524 43.3891 100.524 44.5447V52.8681H104.03V44.5447C104.03 43.8825 104.155 43.251 104.403 42.6699C104.653 42.0867 105.001 41.5714 105.44 41.1329C105.881 40.6921 106.396 40.3457 106.975 40.0979C107.554 39.8502 108.183 39.723 108.85 39.723H110.601V36.2542H108.85C107.725 36.2542 106.642 36.4712 105.631 36.901L105.628 36.9032Z" fill="#DEE2D5"/>
<path d="M127.167 41.3061C126.737 40.3128 126.139 39.4292 125.391 38.6793C124.643 37.9316 123.76 37.333 122.764 36.9032C121.767 36.4734 120.679 36.2563 119.528 36.2563C118.377 36.2563 117.318 36.4734 116.309 36.9032C115.3 37.3351 114.403 37.9337 113.647 38.6793C112.884 39.4292 112.279 40.3128 111.851 41.3061C111.421 42.3016 111.202 43.3891 111.202 44.5447C111.202 45.7002 111.419 46.7571 111.849 47.7636C112.277 48.7678 112.882 49.6646 113.643 50.4277C114.406 51.1907 115.3 51.7937 116.307 52.2191C117.313 52.6488 118.396 52.8681 119.526 52.8681H127.814V44.5447C127.814 43.3935 127.597 42.3038 127.167 41.3061ZM124.347 44.5447V49.3993H119.528C118.866 49.3993 118.23 49.2721 117.635 49.0243C117.039 48.7744 116.517 48.4257 116.083 47.9872C115.647 47.5531 115.298 47.029 115.046 46.437C114.798 45.8428 114.671 45.2047 114.671 44.5447C114.671 43.8847 114.796 43.2532 115.044 42.6699C115.294 42.0867 115.642 41.5714 116.081 41.1329C116.522 40.6943 117.043 40.3457 117.633 40.0979C118.223 39.848 118.859 39.723 119.526 39.723C120.192 39.723 120.819 39.8502 121.398 40.0979C121.975 40.3435 122.492 40.6921 122.933 41.1329C123.374 41.5758 123.72 42.0911 123.968 42.6699C124.218 43.251 124.343 43.8803 124.343 44.5447H124.347Z" fill="#DEE2D5"/>
<path d="M93.9347 44.5469C93.9347 45.2113 93.8097 45.8472 93.5597 46.4392C93.3098 47.0312 92.9611 47.5531 92.5248 47.9916C92.0885 48.4279 91.5644 48.7766 90.9724 49.0287C90.376 49.2765 89.7401 49.4037 89.0801 49.4037C88.4201 49.4037 87.7886 49.2787 87.2075 49.0287C86.6243 48.7788 86.109 48.4301 85.6727 47.9916C85.2363 47.5574 84.8877 47.0356 84.6377 46.4414C84.3878 45.8472 84.2628 45.2113 84.2628 44.5491V36.2607H80.7939V44.5491C80.7939 45.6783 81.011 46.7615 81.443 47.7679C81.8727 48.7744 82.4692 49.669 83.2169 50.4299C83.9689 51.1929 84.8592 51.7959 85.8612 52.2235C86.8699 52.6532 87.9531 52.8725 89.0801 52.8725C90.2071 52.8725 91.3232 52.6532 92.3187 52.2235C93.3076 51.7981 94.1978 51.1951 94.9631 50.4321C95.7239 49.669 96.3291 48.7722 96.7567 47.7679C97.1864 46.7593 97.4035 45.6761 97.4035 44.5491V36.2607H93.9347V44.5491V44.5469Z" fill="#DEE2D5"/>
<path d="M72.1392 29.6849H68.6704V44.5448C68.6704 45.674 68.8875 46.755 69.3194 47.7636C69.7492 48.7701 70.3522 49.6647 71.1131 50.4277C71.8761 51.1908 72.7729 51.7938 73.775 52.2191C74.7836 52.6489 75.8668 52.8682 76.9938 52.8682H78.7107V49.3994H76.9938C76.3338 49.3994 75.6958 49.2722 75.1016 49.0244C74.5073 48.7744 73.9855 48.4258 73.5491 47.9873C73.1128 47.5509 72.7642 47.0291 72.5142 46.437C72.2642 45.8428 72.1392 45.2069 72.1392 44.5448V43.0099H78.7107V39.541H72.1392V29.6827V29.6849Z" fill="#DEE2D5"/>
<path d="M43.06 38.7166C42.3013 37.9689 41.4111 37.3725 40.4156 36.9405C39.4179 36.5108 38.3282 36.2937 37.1792 36.2937C36.0303 36.2937 34.969 36.5108 33.9604 36.9405C32.9539 37.3725 32.0637 37.9689 31.316 38.7166C30.5661 39.4643 29.9675 40.348 29.5399 41.3435C29.1101 42.3367 28.8931 43.4265 28.8931 44.582V52.9055H32.3619V44.582C32.3619 43.9199 32.4869 43.2884 32.7368 42.7073C32.9846 42.1284 33.3333 41.611 33.7718 41.1724C34.2125 40.7317 34.73 40.3831 35.3089 40.1375C35.8877 39.8897 36.517 39.7625 37.1836 39.7625C37.8502 39.7625 38.4861 39.8897 39.0759 40.1375C39.6635 40.3831 40.1854 40.7317 40.6283 41.1724C41.069 41.6132 41.4177 42.1306 41.6633 42.7073C41.9132 43.2906 42.0382 43.9199 42.0382 44.582V52.9055H45.507V44.582C45.507 43.4287 45.2878 42.3389 44.858 41.3435C44.4282 40.3502 43.8252 39.4665 43.0644 38.7166H43.06Z" fill="#DEE2D5"/>
<path d="M61.8514 44.5469C61.8514 45.2091 61.7243 45.845 61.4765 46.4392C61.2265 47.0312 60.8779 47.5531 60.4415 47.9916C60.0052 48.4279 59.4833 48.7766 58.8891 49.0287C58.2949 49.2765 57.6568 49.4037 56.9968 49.4037C56.3368 49.4037 55.7053 49.2787 55.1221 49.0287C54.5388 48.7766 54.0214 48.4279 53.5872 47.9916C53.1487 47.5531 52.8022 47.0312 52.5523 46.4414C52.3045 45.8493 52.1773 45.2135 52.1773 44.5491V36.2607H48.7085V44.5491C48.7085 45.6783 48.9256 46.7615 49.3553 47.7679C49.7851 48.7744 50.3837 49.669 51.1314 50.4299C51.8835 51.1929 52.7737 51.7959 53.778 52.2235C54.7866 52.6532 55.8698 52.8725 56.9968 52.8725C58.1239 52.8725 59.2378 52.6532 60.2332 52.2235C61.2243 51.7981 62.1146 51.1951 62.8776 50.4321C63.6385 49.6712 64.2415 48.7744 64.6712 47.7679C65.101 46.7593 65.3203 45.6761 65.3203 44.5491V36.2607H61.8514V44.5491V44.5469Z" fill="#DEE2D5"/>
<path d="M132.298 39.1463C132.245 39.0784 132.204 39.0301 132.175 39.006C132.144 38.9819 132.103 38.9578 132.048 38.938C132.204 38.9161 132.324 38.8569 132.412 38.7648C132.497 38.6705 132.541 38.5587 132.541 38.4271C132.541 38.3307 132.519 38.243 132.473 38.1662C132.427 38.0873 132.37 38.0281 132.302 37.9908C132.234 37.9535 132.138 37.9272 132.015 37.9184C131.973 37.9163 131.778 37.9141 131.43 37.9141H131.059V39.7428H131.43V38.9929H131.526C131.629 38.9929 131.715 39.0192 131.783 39.0696C131.851 39.1222 131.936 39.2472 132.039 39.4467L132.193 39.7428H132.651L132.436 39.3744C132.359 39.245 132.315 39.1705 132.3 39.1507L132.298 39.1463ZM131.978 38.6749C131.925 38.6925 131.794 38.699 131.579 38.699H131.427V38.1991H131.579C131.789 38.1991 131.923 38.2079 131.976 38.2254C132.03 38.243 132.072 38.2715 132.101 38.3109C132.129 38.3504 132.144 38.3965 132.144 38.4469C132.144 38.4973 132.129 38.5456 132.098 38.5872C132.068 38.6289 132.028 38.6574 131.976 38.6727L131.978 38.6749Z" fill="#DEE2D5"/>
<path d="M133.324 37.9491C133.169 37.6729 132.956 37.4624 132.684 37.3133C132.412 37.1663 132.129 37.0918 131.833 37.0918C131.537 37.0918 131.254 37.1663 130.983 37.3133C130.711 37.4602 130.498 37.6729 130.342 37.9491C130.187 38.2254 130.11 38.5127 130.11 38.8152C130.11 39.1178 130.187 39.4007 130.338 39.6726C130.489 39.9445 130.702 40.1572 130.974 40.3085C131.246 40.4598 131.531 40.5365 131.831 40.5365C132.132 40.5365 132.417 40.4598 132.688 40.3085C132.96 40.1572 133.173 39.9445 133.324 39.6726C133.476 39.4007 133.552 39.1156 133.552 38.8152C133.552 38.5148 133.476 38.2254 133.32 37.9491H133.324ZM133.037 39.5059C132.914 39.7252 132.743 39.8962 132.526 40.019C132.309 40.1418 132.079 40.2032 131.838 40.2032C131.597 40.2032 131.368 40.1418 131.149 40.019C130.93 39.8962 130.759 39.7252 130.638 39.5059C130.516 39.2867 130.456 39.0564 130.456 38.8152C130.456 38.5741 130.52 38.3394 130.645 38.118C130.77 37.8965 130.941 37.7255 131.158 37.6071C131.375 37.4887 131.603 37.4295 131.84 37.4295C132.077 37.4295 132.305 37.4887 132.522 37.6071C132.739 37.7255 132.912 37.8965 133.037 38.118C133.162 38.3394 133.226 38.5719 133.226 38.8152C133.226 39.0586 133.164 39.2867 133.041 39.5059H133.037Z" fill="#DEE2D5"/>
</svg>
