<svg width="149" height="149" viewBox="0 0 149 149" fill="none" xmlns="http://www.w3.org/2000/svg">
<circle cx="74.5" cy="74.5" r="74" stroke="#174218"/>
<circle opacity="0.6" cx="75" cy="75" r="67" fill="#B6BEA7"/>
<path d="M91.1074 57.8923C96.8931 60.3648 103.4 60.5562 109.322 58.428" stroke="#174218" stroke-width="3" stroke-linecap="round" stroke-linejoin="round"/>
<path d="M58.4286 109.321C60.5549 103.381 60.3636 96.8581 57.8929 91.0531C55.9591 86.4308 55.4358 81.3399 56.3892 76.421C57.3424 71.5021 59.7295 66.9752 63.25 63.4101C66.859 59.8385 71.4445 57.4152 76.4286 56.4458" stroke="#174218" stroke-width="3" stroke-linecap="round" stroke-linejoin="round"/>
<path d="M72.3569 92.5535C77.3652 91.5758 81.9705 89.1335 85.5891 85.5356C89.1157 81.9743 91.5072 77.4472 92.4608 72.5268C93.4144 67.6063 92.8872 62.5137 90.9463 57.8928C88.5259 52.0865 88.3919 45.5795 90.5712 39.6785" stroke="#174218" stroke-width="3" stroke-linecap="round" stroke-linejoin="round"/>
<path d="M39.6787 90.5719C45.6024 88.4335 52.1199 88.6443 57.893 91.1612" stroke="#174218" stroke-width="3" stroke-linecap="round" stroke-linejoin="round"/>
<path d="M63.4639 63.4102L85.5889 85.5352" stroke="#174218" stroke-width="3" stroke-linecap="round" stroke-linejoin="round"/>
</svg>
