<svg width="149" height="149" viewBox="0 0 149 149" fill="none" xmlns="http://www.w3.org/2000/svg">
<circle cx="74.5" cy="74.5" r="74" stroke="#174218"/>
<circle opacity="0.6" cx="75" cy="75" r="67" fill="#B6BEA7"/>
<path d="M44.5 89.2501C47.5375 89.2501 49.9999 85.5565 49.9999 81.0002C49.9999 76.4439 47.5375 72.7502 44.5 72.7502C41.4624 72.7502 39 76.4439 39 81.0002C39 85.5565 41.4624 89.2501 44.5 89.2501Z" stroke="#174218" stroke-width="3" stroke-linecap="round" stroke-linejoin="round"/>
<path d="M61.0005 64.4999C64.038 64.4999 66.5004 60.8063 66.5004 56.2499C66.5004 51.6936 64.038 48 61.0005 48C57.9629 48 55.5005 51.6936 55.5005 56.2499C55.5005 60.8063 57.9629 64.4999 61.0005 64.4999Z" stroke="#174218" stroke-width="3" stroke-linecap="round" stroke-linejoin="round"/>
<path d="M88.4995 64.4999C91.5371 64.4999 93.9994 60.8063 93.9994 56.2499C93.9994 51.6936 91.5371 48 88.4995 48C85.462 48 82.9995 51.6936 82.9995 56.2499C82.9995 60.8063 85.462 64.4999 88.4995 64.4999Z" stroke="#174218" stroke-width="3" stroke-linecap="round" stroke-linejoin="round"/>
<path d="M104.999 89.2501C108.036 89.2501 110.498 85.5565 110.498 81.0002C110.498 76.4439 108.036 72.7502 104.999 72.7502C101.961 72.7502 99.4985 76.4439 99.4985 81.0002C99.4985 85.5565 101.961 89.2501 104.999 89.2501Z" stroke="#174218" stroke-width="3" stroke-linecap="round" stroke-linejoin="round"/>
<path d="M91.2503 92.0001C91.2503 99.5901 82.3403 103 74.7504 103C67.1604 103 58.2505 99.5901 58.2505 92.0001C58.2505 84.4102 63.7505 72.7502 74.7504 72.7502C85.7503 72.7502 91.2503 84.4102 91.2503 92.0001Z" stroke="#174218" stroke-width="3" stroke-linecap="round" stroke-linejoin="round"/>
</svg>
