<svg width="149" height="149" viewBox="0 0 149 149" fill="none" xmlns="http://www.w3.org/2000/svg">
<circle cx="74.5" cy="74.5" r="74" stroke="#174218"/>
<circle opacity="0.6" cx="75" cy="75" r="67" fill="#B6BEA7"/>
<path d="M97.3766 66.3425C107.519 80.6259 99.7602 96.9861 96.0073 103.368C95.4571 104.261 94.7177 105.022 93.8418 105.6C92.9655 106.177 91.974 106.556 90.9359 106.711C83.5822 107.977 65.2743 109.395 55.4357 95.1117C45.7493 81.6389 46.155 57.9346 47.0172 46.6395C47.0512 45.798 47.2847 44.9766 47.6988 44.2429C48.1128 43.5092 48.6954 42.8841 49.3985 42.4193C50.1017 41.9544 50.9053 41.6629 51.7433 41.5689C52.5813 41.4749 53.4297 41.5809 54.2186 41.8784C65.1222 45.0188 87.8422 52.8695 97.3766 66.3425Z" stroke="#174218" stroke-width="3" stroke-linecap="round" stroke-linejoin="round"/>
<path d="M63.1948 61.6318C74.8111 75.3037 85.0063 90.1188 93.6235 105.849" stroke="#174218" stroke-width="3" stroke-linecap="round" stroke-linejoin="round"/>
</svg>
