<svg width="149" height="149" viewBox="0 0 149 149" fill="none" xmlns="http://www.w3.org/2000/svg">
<circle cx="74.5" cy="74.5" r="74" stroke="#174218"/>
<circle opacity="0.6" cx="75" cy="75" r="67" fill="#B6BEA7"/>
<path fill-rule="evenodd" clip-rule="evenodd" d="M76.4797 38C76.4797 37.4477 76.0319 37 75.4797 37C74.9274 37 74.4797 37.4477 74.4797 38V42.3396C74.4753 42.3444 74.4709 42.3493 74.4665 42.3542C74.2886 42.5515 74.0359 42.8366 73.7335 43.1918C73.1297 43.9011 72.3225 44.8954 71.5132 46.0323C70.7061 47.1661 69.883 48.4609 69.2582 49.7699C68.6411 51.063 68.1757 52.4551 68.1757 53.761C68.1757 55.0669 68.6411 56.459 69.2582 57.7521C69.5437 58.3501 69.8704 58.9451 70.2182 59.5232C69.5478 59.0929 68.8394 58.7212 68.1005 58.4134C68.0696 58.4005 68.0381 58.3892 68.006 58.3795L60.7189 56.1707V47.4562C60.7189 46.904 60.2712 46.4562 59.7189 46.4562C59.1666 46.4562 58.7189 46.904 58.7189 47.4562V56.7176C57.3293 60.2428 58.0739 63.9534 59.9282 67.0734C60.8159 68.5668 61.9686 69.9468 63.2961 71.1373L60.009 70.141C59.5177 69.992 58.9934 70.2393 58.7959 70.7132C57.3029 74.2947 58.0406 78.0828 59.9282 81.2589C60.8155 82.7518 61.9678 84.1313 63.2947 85.3216L60.009 84.3256C59.5177 84.1767 58.9934 84.424 58.7959 84.8978C57.3029 88.4793 58.0406 92.2674 59.9282 95.4435C61.8126 98.614 64.8918 101.273 68.302 102.695L68.3023 102.695L74.1212 105.119C74.2385 105.168 74.3598 105.192 74.4797 105.196V110.5C74.4797 111.052 74.9274 111.5 75.4797 111.5C76.0319 111.5 76.4797 111.052 76.4797 110.5V105.196C76.5995 105.192 76.7208 105.168 76.8381 105.119L82.657 102.695L82.6572 102.695C86.067 101.273 89.1502 98.6145 91.0367 95.4439C92.9266 92.2677 93.6648 88.4784 92.1626 84.8959C91.9644 84.4232 91.4408 84.1769 90.9503 84.3256L87.6682 85.3204C88.9957 84.1305 90.1487 82.7516 91.0367 81.2593C92.9266 78.083 93.6648 74.2938 92.1626 70.7113C91.9644 70.2386 91.4408 69.9923 90.9503 70.141L87.6669 71.1362C88.9949 69.946 90.1484 68.5667 91.0367 67.0738C92.8933 63.9535 93.6385 60.2416 92.2399 56.7153V47.4562C92.2399 46.904 91.7922 46.4562 91.2399 46.4562C90.6876 46.4562 90.2399 46.904 90.2399 47.4562V56.1708L82.9532 58.3795C82.9212 58.3892 82.8897 58.4005 82.8588 58.4134C82.1204 58.721 81.4123 59.0924 80.7423 59.5224C81.0899 58.9446 81.4165 58.3498 81.7018 57.7521C82.3189 56.459 82.7844 55.0669 82.7844 53.761C82.7844 52.4551 82.3189 51.063 81.7018 49.7699C81.077 48.4609 80.254 47.1661 79.4468 46.0323C78.6375 44.8954 77.8304 43.9011 77.2265 43.1918C76.9241 42.8366 76.6715 42.5515 76.4935 42.3542C76.4888 42.349 76.4842 42.3439 76.4797 42.3388V38ZM75.48 63.2941C75.4094 63.2126 75.3347 63.1256 75.2564 63.0337C74.6782 62.3545 73.9093 61.4069 73.1425 60.3298C72.3735 59.2496 71.6205 58.0583 71.0632 56.8906C70.4983 55.7069 70.1757 54.6317 70.1757 53.761C70.1757 52.8903 70.4983 51.8151 71.0632 50.6314C71.6205 49.4637 72.3735 48.2724 73.1425 47.1922C73.9093 46.1151 74.6782 45.1675 75.2564 44.4883C75.3347 44.3964 75.4094 44.3094 75.48 44.2279C75.5506 44.3094 75.6254 44.3964 75.7036 44.4883C76.2818 45.1675 77.0508 46.1151 77.8175 47.1922C78.5865 48.2724 79.3395 49.4637 79.8968 50.6314C80.4618 51.8151 80.7844 52.8903 80.7844 53.761C80.7844 54.6317 80.4618 55.7069 79.8968 56.8906C79.3395 58.0583 78.5865 59.2496 77.8175 60.3298C77.0508 61.4069 76.2818 62.3545 75.7036 63.0337C75.6254 63.1256 75.5506 63.2126 75.48 63.2941ZM61.6475 66.0516C60.1517 63.5349 59.5715 60.7542 60.3407 58.1459L67.3768 60.2786C68.7662 60.8644 70.0284 61.7153 71.0926 62.7839C72.1684 63.8642 73.0209 65.1457 73.6014 66.5555C74.1819 67.9652 74.479 69.4755 74.4758 71C74.4733 72.1903 74.2878 73.3711 73.9274 74.5013L69.0716 72.4785C66.0545 71.2208 63.3101 68.8489 61.6475 66.0516ZM61.6475 80.237C60.1517 77.7203 59.5715 74.9396 60.3407 72.3314L67.3768 74.4641C68.7662 75.0499 70.0284 75.9008 71.0926 76.9694C72.1684 78.0496 73.0209 79.3312 73.6014 80.7409C74.1819 82.1507 74.479 83.6609 74.4758 85.1855C74.4733 86.3758 74.2878 87.5565 73.9274 88.6868L69.0716 86.664L69.0714 86.6639C66.0544 85.4061 63.31 83.0343 61.6475 80.237ZM61.6475 94.4217C60.1517 91.905 59.5715 89.1243 60.3407 86.516L67.3768 88.6487C68.7662 89.2345 70.0284 90.0854 71.0926 91.154C72.1684 92.2343 73.0209 93.5159 73.6014 94.9256C74.1819 96.3353 74.479 97.8456 74.4758 99.3701C74.4733 100.56 74.2878 101.741 73.9274 102.871L69.0716 100.849C66.0545 99.5909 63.3101 97.219 61.6475 94.4217ZM83.5825 88.6487C82.1931 89.2345 80.9309 90.0854 79.8667 91.154C78.7909 92.2343 77.9384 93.5159 77.3579 94.9256C76.7774 96.3353 76.4803 97.8456 76.4835 99.3701C76.486 100.56 76.6715 101.741 77.0318 102.871L81.8877 100.849C84.9052 99.5907 87.6535 97.2185 89.3179 94.4212C90.8157 91.904 91.3956 89.1234 90.6205 86.5154L83.5825 88.6487ZM83.5825 74.4641C82.1931 75.0499 80.9309 75.9008 79.8667 76.9694C78.7909 78.0496 77.9384 79.3312 77.3579 80.7409C76.7774 82.1507 76.4803 83.6609 76.4835 85.1855C76.486 86.3757 76.6715 87.5565 77.0318 88.6868L81.8877 86.664L81.8879 86.6639C84.9053 85.4059 87.6536 83.0338 89.3179 80.2366C90.8157 77.7194 91.3956 74.9387 90.6205 72.3308L83.5825 74.4641ZM83.5825 60.2786C82.1931 60.8644 80.9309 61.7153 79.8667 62.7839C78.7909 63.8642 77.9384 65.1457 77.3579 66.5555C76.7774 67.9652 76.4803 69.4755 76.4835 71C76.486 72.1903 76.6715 73.3711 77.0318 74.5013L81.8877 72.4785C84.9052 71.2206 87.6535 68.8484 89.3179 66.0511C90.8157 63.5339 91.3956 60.7533 90.6205 58.1453L83.5825 60.2786Z" fill="#174218"/>
<path d="M45 106.276L105 46.2759" stroke="#174218" stroke-width="2" stroke-linecap="round"/>
</svg>
